<?xml version="1.0" encoding="UTF-8"?>
<svg xmlns="http://www.w3.org/2000/svg" version="1.1" xmlns:xlink="http://www.w3.org/1999/xlink" viewBox="0 0 425.2 221.2">
  <defs>
    <style>
      .cls-1 {
        fill: #fff;
      }

      .cls-2 {
        fill: none;
      }

      .cls-3 {
        clip-path: url(#clippath);
      }
    </style>
    <clipPath id="clippath">
      <rect class="cls-2" width="425.2" height="221.2"/>
    </clipPath>
  </defs>
  <!-- Generator: Adobe Illustrator 28.7.1, SVG Export Plug-In . SVG Version: 1.2.0 Build 142)  -->
  <g>
    <g id="Ebene_1">
      <g class="cls-3">
        <g>
          <path class="cls-1" d="M311.7,149.7v64.8c0,2.4-.5,4.1-1.6,5.1-1,1-2.9,1.6-5.5,1.6h-37.4c-2.6,0-4.5-.5-5.5-1.6s-1.6-2.7-1.6-5.1v-69.2c0-1.5-.3-2.8-1-3.8-.7-1-1.7-1.4-2.9-1.4s-2.9.6-3.6,1.6v74.1c0,1.9-.5,3.2-1.5,4.1-1,.8-2.8,1.3-5.3,1.3h-38c-2.5,0-4.3-.4-5.3-1.3s-1.5-2.2-1.5-4.1v-.2c0-.3,0-.7,0-1.1v-69.2c0-1.5-.3-2.8-1-3.8-.7-1-1.7-1.4-2.9-1.4s-2.9.6-3.6,1.6v74.1c0,1.9-.5,3.2-1.5,4.1-1,.8-2.8,1.3-5.3,1.3h-38c-2.5,0-4.3-.4-5.3-1.3s-1.5-2.2-1.5-4.1v-100.5h18.9c10.4,0,18.4,2.8,24.1,8.4,2.4,2.4,4.2,5.2,5.6,8.5h0c.8-1.6,1.7-3.1,2.6-4.4,2.7-4,6-7.3,9.9-9.7,5.5-3.4,11.7-5.2,18.6-5.2,10,0,17.6,3.5,22.9,10.3,1.5,2,2.8,4.1,3.8,6.6h0c.4.8.8,1.6,1.1,2.4h0c.8-1.6,1.7-3.1,2.6-4.4,2.7-4,6-7.3,9.9-9.7,5.5-3.4,11.7-5.2,18.6-5.2,10,0,17.6,3.5,22.9,10.3,1.9,2.5,3.4,5.3,4.6,8.5h0c2.1,5,3.2,10.9,3.2,17.9"/>
          <path class="cls-1" d="M134.7,5.4v.2c0,.2,0,.5,0,.8-.2,2.5-1.5,7.2-3.7,13.9-3.5,10.9-9.6,27.2-18.1,49-5.1,13.2-11,27.9-17.7,44.3-4.4,11-8.9,21-13.2,27.1-4.3,6-9.1,10.3-14.2,12.9-5.2,2.6-11.3,3.9-18.4,3.9-10.2,0-18.5-2.3-24.9-6.9-6.3-4.6-9.3-12.2-9.3-19.7s2.6-11.8,7.7-15.8c5.1-4,11.8-6,20-6s13.9,1.8,18.7,5.5c4.9,3.7,7.3,8.4,7.3,14.2s-1.5,7.9-4.5,10.3c-3,2.4-7.2,3.6-12.6,3.6-.3.6-.4,1.2-.4,1.9,0,1.9,1.6,2.9,4.8,2.9,5.4,0,9.9-1.8,13.5-5.5,3.6-3.7,5.4-8.3,5.4-13.8s-2.3-11.9-6.9-16.1c-4.6-4.2-11.2-7.1-20-8.6-5-.8-8.2-1.9-9.8-3.3-1.1-1-2.2-2.8-3.4-5.5,0,0,0,0,0-.2l-8-21.4-10.9-29.4s0,0,0,0l-2.4-6.3-4-10.6-2.1-5.7-.9-2.4-.2-.4L0,0h39.4c.6,0,1.1.1,1.7.2,3.3.3,6.4,1.1,9.3,2.5,7.4,3.6,13,10.8,16.9,21.4l1.2,3.2h0s0,0,0,0l.8,2.2,1.4,3.5,6.1,18.4.6,1.8,3.4,10.2.4,1.2.4,1.2.8,2.4,3.3,10,2.6,8c.3.3.7.6,1.1.8.2,0,.4.2.7.2.2,0,.5,0,.8,0,2.1,0,3.1-1.2,3.1-3.5s-.6-3.5-1.7-6.8l-18.3-55.8-.5-1.4h0c0,0-.3-1.1-.3-1.1v-.4c-.1,0-.3-.6-.3-.6-1.6-5.3-2.6-9-2.8-11.2,0-.3,0-.5,0-.8v-.2c0-3.6,2.5-5.4,7.5-5.4h.2s0,0,0,0h13.4c1,0,1.9,0,2.8,0h2.1c.8,0,1.5,0,2.2,0s0,0,0,0h1.3s0,0,0,0h27.7c.6,0,1.2,0,1.8,0,1.1.1,2,.3,2.7.7,2,.8,3,2.4,3,4.7"/>
          <path class="cls-1" d="M425.2,149.6v27.1c0,.5,0,1,0,1.6v36.2c0,2.5-.6,4.2-1.6,5.2-.8.7-2,1.1-3.7,1.3-.6,0-1.2.1-2,.1h-91.7c-2.5,0-4.3-.5-5.5-1.4-1.2-.9-1.8-2.4-1.8-4.5s.7-3.9,2.1-6.1l53.4-81.3v-.2c-.2-.4-.7-.7-1-1h0c-.4-.3-.8-.5-1.2-.6-.1,0-.3-.1-.5-.1-.4,0-.7-.1-1.1-.1s0,0,0,0c-.1,0-.2,0-.3,0-.2,0-.5,0-.7.1-.1,0-.2,0-.4.1-.1,0-.2,0-.3.2-.2,0-.4.2-.6.3,0,0-.2.1-.3.2-.1.1-.2.2-.4.4-.4.4-.8.9-1.4,1.5,0,0,0,0,0,0,0,0,0,0-.1.1s0,.1-.1.2c-.3.3-.6.7-.8,1.1l-19.5,29.8c-1,1.5-2,2.9-2.9,4.4l-1.6,2.4c0,.2-.2.3-.3.4-4.3,6.6-8.3,12.5-11,16.4-1.7,2.5-2.9,4.2-3.3,4.7h0c0,0,0,.2,0,.2-1.4,1.7-2.7,2.2-3.6,2.2-2.1,0-3.1-1.4-3.1-4.1h0c0,0,0,0,0,0v-65c0-2.5.6-4.2,1.6-5.2.6-.5,1.4-.9,2.4-1.1,1-.2,2.1-.4,3.5-.4h90.5c4.9,0,7.3,1.7,7.3,5.2s-.8,4.4-2.3,6.9l-49.8,81.3c1.1,1.1,2.4,1.7,3.8,1.7s.5,0,.7-.1c.6-.1,1.1-.3,1.6-.7.4-.3.9-.8,1.5-1.5,0-.1.2-.2.2-.3.6-1,1.9-3.1,3.5-5.7,3.4-5.4,8.4-13.7,13.6-22.1,6.5-10.6,13.2-21.4,17.1-27.5,1.6-2.6,2.8-4.3,3.2-4.8h0c0,0,0-.2,0-.2,1.3-1.7,2.6-2.3,3.5-2.4.9,0,1.5.2,2.1.6.1.1.2.2.4.4.5.6.8,1.4.8,2.5,0,.2,0,.5,0,.8h0s0,0,0,0"/>
          <path class="cls-1" d="M252.6,5.3v100.5h-18.9c-10.4,0-18.5-.5-24.1-6-2.4-2.4-4.2-5.2-5.6-8.5-3.1,5.4-7.3,9.5-12.6,12.3-5.5,3-11.7,4.5-18.6,4.5-10,0-17.6-3-22.9-8.9-5.3-6-7.9-14.4-7.9-25.4V.2h19c10.5,0,18.5,3,24.2,9,5.6,6,8.5,14.7,8.5,25.9v3.4h0v39.6c0,1.5.4,2.8,1,3.7.7,1,1.7,1.5,2.9,1.5s2.9-.6,3.5-1.7V5.3c0-1.9.5-3.3,1.5-4.1,1-.8,2.8-1.2,5.3-1.2h38c2.5,0,4.3.4,5.3,1.2,1,.8,1.5,2.2,1.5,4.1"/>
        </g>
      </g>
    </g>
  </g>
</svg>